<?xml version="1.0" standalone="no"?>
<!DOCTYPE svg PUBLIC "-//W3C//DTD SVG 20010904//EN"
 "http://www.w3.org/TR/2001/REC-SVG-20010904/DTD/svg10.dtd">
<svg version="1.0" xmlns="http://www.w3.org/2000/svg"
 width="300.000000pt" height="300.000000pt" viewBox="0 0 300.000000 300.000000"
 preserveAspectRatio="xMidYMid meet">
<metadata>
Created by potrace 1.14, written by Peter Selinger 2001-2017
</metadata>
<g transform="translate(0.000000,300.000000) scale(0.100000,-0.100000)"
fill="#000000" stroke="none">
<path d="M0 1500 l0 -1500 313 0 312 0 0 1500 0 1500 -312 0 -313 0 0 -1500z"/>
<path d="M2350 1500 l0 -1500 325 0 325 0 0 1500 0 1500 -325 0 -325 0 0
-1500z"/>
<path d="M1406 1648 c-33 -73 -71 -162 -86 -198 -16 -36 -60 -139 -99 -229
-39 -90 -71 -167 -71 -171 0 -3 146 -7 324 -8 l324 -2 -104 243 c-57 133 -109
251 -114 262 -5 11 -26 59 -47 106 -67 151 -59 151 -127 -3z"/>
</g>
</svg>
