<?xml version="1.0" encoding="UTF-8" standalone="no"?>
<svg
   xmlns:dc="http://purl.org/dc/elements/1.1/"
   xmlns:cc="http://creativecommons.org/ns#"
   xmlns:rdf="http://www.w3.org/1999/02/22-rdf-syntax-ns#"
   xmlns:svg="http://www.w3.org/2000/svg"
   xmlns="http://www.w3.org/2000/svg"
   xmlns:sodipodi="http://sodipodi.sourceforge.net/DTD/sodipodi-0.dtd"
   xmlns:inkscape="http://www.inkscape.org/namespaces/inkscape"
   width="44.345238mm"
   height="10.225034mm"
   viewBox="0 0 44.345237 10.225034"
   version="1.1"
   id="svg8"
   inkscape:version="1.0 (4035a4fb49, 2020-05-01)"
   sodipodi:docname="logo_with_triangle.svg">
  <defs
     id="defs2">
    <clipPath
       id="clipPath2167"
       clipPathUnits="userSpaceOnUse">
      <path
         d="m 271.16289,438.43151 a 69.209671,69.209671 0 0 0 -68.96321,69.20987 69.209671,69.209671 0 0 0 0,0.13608 h -0.0312 V 632.99682 H 340.60666 V 508.90018 a 69.209671,69.209671 0 0 0 0.0113,-1.2588 69.209671,69.209671 0 0 0 -69.20988,-69.20987 69.209671,69.209671 0 0 0 -0.24524,0 z"
         style="fill:#ff0000;fill-opacity:1;stroke-width:3.84042;stroke-linecap:round;stroke-linejoin:round;paint-order:markers stroke fill;stop-color:#000000"
         id="path2169" />
    </clipPath>
  </defs>
  <sodipodi:namedview
     id="base"
     pagecolor="#ffffff"
     bordercolor="#666666"
     borderopacity="1.0"
     inkscape:pageopacity="0.0"
     inkscape:pageshadow="2"
     inkscape:zoom="5.6"
     inkscape:cx="122.81964"
     inkscape:cy="-27.83825"
     inkscape:document-units="mm"
     inkscape:current-layer="g2483"
     inkscape:document-rotation="0"
     showgrid="false"
     showguides="true"
     inkscape:guide-bbox="true"
     inkscape:window-width="3840"
     inkscape:window-height="2066"
     inkscape:window-x="-11"
     inkscape:window-y="-11"
     inkscape:window-maximized="1"
     units="mm"
     height="52.98mm">
    <sodipodi:guide
       id="guide855"
       orientation="0,-1"
       position="-19.653658,284.64509" />
    <sodipodi:guide
       id="guide859"
       orientation="0,-1"
       position="50.103679,306.9621" />
    <sodipodi:guide
       id="guide861"
       orientation="1,0"
       position="86.051428,389.01385" />
    <sodipodi:guide
       id="guide863"
       orientation="1,0"
       position="-169.99276,395.82922" />
    <sodipodi:guide
       id="guide2084"
       orientation="0,-1"
       position="88.613088,186.0118" />
    <sodipodi:guide
       id="guide2086"
       orientation="0,-1"
       position="90.975438,188.75213" />
    <sodipodi:guide
       id="guide2100"
       orientation="0,-1"
       position="5.5364939,209.52461" />
    <sodipodi:guide
       id="guide2102"
       orientation="0,-1"
       position="5.2024139,211.06141" />
  </sodipodi:namedview>
  <metadata
     id="metadata5">
    <rdf:RDF>
      <cc:Work
         rdf:about="">
        <dc:format>image/svg+xml</dc:format>
        <dc:type
           rdf:resource="http://purl.org/dc/dcmitype/StillImage" />
        <dc:title></dc:title>
      </cc:Work>
    </rdf:RDF>
  </metadata>
  <g
     transform="translate(-142.33037,-199.03231)"
     inkscape:label="Layer 1"
     inkscape:groupmode="layer"
     id="layer1">
    <g
       id="g887"
       transform="matrix(0.36454314,0,0,0.36454314,11.901324,-40.726976)">
      <g
         id="g2483">
        <g
           transform="translate(136.15919,629.69037)"
           id="g2158">
          <g
             id="g2135"
             transform="translate(0,-62.729365)">
            <path
               d="m 221.96871,113.83383 9.43154,-12.39897 q 0.64263,-0.83164 0.98284,-1.701083 0.35912,-0.888341 0.35912,-1.644376 v -0.0378 q 0,-1.115152 -0.71823,-1.71998 -0.71824,-0.604828 -2.0413,-0.604828 -1.28526,0 -2.0791,0.85054 -0.79383,0.831638 -0.96394,2.38151 v 0.0189 h -5.31115 v -0.0189 q 0.17011,-2.570519 1.22856,-4.422805 1.07735,-1.852286 2.89183,-2.816231 1.81449,-0.982846 4.196,-0.982846 2.57052,0 4.385,0.85054 1.83339,0.831638 2.77843,2.438213 0.96395,1.606575 0.96395,3.87468 v 0.0189 q 0,1.871187 -0.66153,3.723476 -0.64263,1.83338 -1.81449,3.32655 l -6.76651,8.5432 h 9.39373 v 4.98983 h -16.25475 z"
               style="font-style:normal;font-variant:normal;font-weight:bold;font-stretch:normal;font-size:38.709px;line-height:1.25;font-family:Bahnschrift;-inkscape-font-specification:'Bahnschrift Bold';stroke-width:0.725794"
               id="path2104" />
            <path
               d="m 240.90739,109.52443 8.46759,-18.485057 h 5.85928 l -8.24079,18.258247 h 12.34228 v 4.98983 h -18.42836 z m 11.09482,-7.18233 h 5.17884 v 16.17915 h -5.17884 z"
               style="font-style:normal;font-variant:normal;font-weight:bold;font-stretch:normal;font-size:38.709px;line-height:1.25;font-family:Bahnschrift;-inkscape-font-specification:'Bahnschrift Bold';stroke-width:0.725794"
               id="path2106" />
            <path
               d="m 263.47504,98.883238 h 5.17884 v 19.619112 h -5.17884 z m 11.34053,7.730462 q 0,-1.43647 -0.83164,-2.23031 -0.81274,-0.79383 -2.32481,-0.79383 -1.43646,0 -2.2303,0.81273 -0.77494,0.79384 -0.77494,2.24921 l -0.39692,-4.3472 q 0.88835,-1.85229 2.1169,-2.778432 1.24746,-0.926143 3.11865,-0.926143 3.09974,0 4.80082,2.097995 1.70108,2.0791 1.70108,5.89708 v 11.90755 h -5.17884 z"
               style="font-style:normal;font-variant:normal;font-weight:bold;font-stretch:normal;font-size:38.709px;line-height:1.25;font-family:Bahnschrift;-inkscape-font-specification:'Bahnschrift Bold';stroke-width:0.725794"
               id="path2108" />
            <path
               d="m 316.73771,107.18072 q 0,-1.71998 -0.83164,-2.64612 -0.81273,-0.94504 -2.3248,-0.94504 -1.49317,0 -2.30591,0.90724 -0.79384,0.88834 -0.79384,2.53272 l -0.96394,-4.53621 q 0.92614,-1.87119 2.40041,-2.872938 1.49317,-1.020647 3.30765,-1.020647 2.1169,0 3.61007,1.001746 1.51207,1.001749 2.28701,2.929639 0.79383,1.92789 0.79383,4.63071 v 11.34053 h -5.17884 z m -22.87006,-8.297482 h 5.17884 v 19.619112 h -5.17884 z m 11.43503,8.297482 q 0,-1.71998 -0.85054,-2.64612 -0.85054,-0.94504 -2.40041,-0.94504 -1.43647,0 -2.2303,0.81273 -0.77494,0.79384 -0.77494,2.24921 l -0.39692,-4.3472 q 0.86944,-1.81449 2.1736,-2.759532 1.30416,-0.945043 3.06195,-0.945043 2.07909,0 3.55336,1.001746 1.49317,1.001749 2.26811,2.929639 0.77493,1.92789 0.77493,4.63071 v 11.34053 h -5.17884 z"
               style="font-style:normal;font-variant:normal;font-weight:bold;font-stretch:normal;font-size:38.709px;line-height:1.25;font-family:Bahnschrift;-inkscape-font-specification:'Bahnschrift Bold';stroke-width:0.725794"
               id="path2112" />
            <path
               d="m 335.46848,118.78586 q -2.83513,0 -4.85752,-1.02064 -2.0035,-1.03955 -3.06195,-3.00524 -1.05844,-1.9846 -1.05844,-4.76303 v -2.2114 q 0,-2.91073 1.00174,-4.97093 1.02065,-2.0602 2.94854,-3.137545 1.94679,-1.07735 4.68742,-1.07735 2.57052,0 4.4039,1.285259 1.83339,1.285256 2.77843,3.742376 0.96395,2.43821 0.96395,5.89707 v 1.28526 h -13.41963 v -3.49666 h 8.69441 l -0.0567,-0.45362 q -0.20791,-1.70108 -1.07735,-2.62722 -0.85054,-0.92615 -2.287,-0.92615 -1.87119,0 -2.91074,1.11516 -1.02065,1.11515 -1.02065,3.15644 v 2.49492 q 0,2.00349 1.11516,3.09974 1.13405,1.09625 3.15644,1.09625 1.03955,0 2.0602,-0.35911 1.02065,-0.37802 1.85228,-1.05845 v 0 l 3.38326,3.00524 v 0 q -1.53097,1.39866 -3.43996,2.1736 -1.90899,0.75603 -3.85578,0.75603 z"
               style="font-style:normal;font-variant:normal;font-weight:bold;font-stretch:normal;font-size:38.709px;line-height:1.25;font-family:Bahnschrift;-inkscape-font-specification:'Bahnschrift Bold';stroke-width:0.725794"
               id="path2114" />
            <path
               id="path2127"
               d="m 284.20672,112.68062 c 0,-0.0648 2.53613,-5.89386 2.57958,-5.92893 0.0255,-0.0205 0.25585,0.45101 0.51202,1.04787 0.25616,0.59686 0.83967,1.94604 1.29669,2.99817 l 0.83094,1.91296 h -2.60962 c -1.43528,0 -2.60961,-0.0135 -2.60961,-0.0301 z"
               style="fill:#ff0000;fill-opacity:1;stroke-width:0.29696;stroke-linecap:round;stroke-linejoin:round;paint-order:markers stroke fill;stop-color:#000000" />
          </g>
        </g>
      </g>
    </g>
  </g>
</svg>
